# xmcd
#
# Track frame offsets:
#	150
#	18002
#	49012
#	78177
#	99294
#	112849
#	144442
#	157189
#	177429
#	196982
#	215302
#	227472
#
# Disc length: 3280 seconds
#
# Revision: 1
# Processed by: cddbd v1.4PL0 Copyright (c) Steve Scherf et al.
# Submitted via: audiograbber 1.80
#
DISCID=8a0cce0c
DTITLE=Años Blues - Chivo Azul - Delta Sur - bluesoloblues
DYEAR=1900
DGENRE=
TTITLE0=Años Blues - El fonquito
TTITLE1=Años Blues - En el borde
TTITLE2=Años Blues - Amor y Rock&Roll
TTITLE3=Años Blues - Bluseando con Alicia (en vivo)
TTITLE4=Chivo Azul - Para amanecer domingo
TTITLE5=Chivo Azul - El tren
TTITLE6=Chivo Azul - El blues de Don Ramón
TTITLE7=Chivo Azul - Un chivo en bicicleta (en vivo)
TTITLE8=Delta Sur - Charro and the moon howlers
TTITLE9=Delta Sur - La razón
TTITLE10=Delta Sur - The one who walks the mud (one days gets the dirt)
TTITLE11=Delta Sur - Talk to me baby (en vivo)
EXTD=Grabaxiones Alicia
EXTT0=
EXTT1=
EXTT2=
EXTT3=
EXTT4=
EXTT5=
EXTT6=
EXTT7=
EXTT8=
EXTT9=
EXTT10=
EXTT11=
PLAYORDER=
